# Blender 4.1.1
# www.blender.org
mtllib player.mtl
o Cube
v -1.000000 1.000000 -1.000000
v -1.000000 -1.000000 -1.000000
v -1.000000 1.000000 1.000000
v -1.000000 -1.000000 1.000000
v 1.000000 1.000000 -1.000000
v 1.000000 -1.000000 -1.000000
v 1.000000 1.000000 1.000000
v 1.000000 -1.000000 1.000000
v -1.000000 0.000000 -1.000000
v 1.000000 0.000000 1.000000
v -1.000000 0.000000 1.000000
v 1.000000 0.000000 -1.000000
v -0.000000 -1.000000 -1.000000
v 0.000000 1.000000 1.000000
v 0.000000 -1.000000 1.000000
v -0.000000 1.000000 -1.000000
v -0.000000 0.000000 -1.000000
v 0.000000 0.000000 2.749045
v 1.000000 -1.000000 -0.000000
v -1.000000 1.939326 0.000000
v 1.000000 1.939326 -0.000000
v -1.000000 -1.000000 0.000000
v -1.000000 0.000000 0.000000
v 1.000000 0.000000 -0.000000
v 0.000000 -1.000000 0.000000
v 0.000000 1.000000 0.000000
vn -0.0000 1.0000 -0.0000
vn 0.6556 0.6556 0.3748
vn 1.0000 -0.0000 -0.0000
vn -0.0000 -1.0000 -0.0000
vn -1.0000 -0.0000 -0.0000
vn -0.0000 -0.0000 -1.0000
vn -0.0000 -0.0000 1.0000
vn -0.6556 0.6556 0.3748
vn 0.5649 0.6014 0.5649
vn 0.5649 0.6014 -0.5649
vn -0.5649 0.6014 0.5649
vn 0.6556 -0.6556 0.3748
vn -0.6556 -0.6556 0.3748
vn -0.5649 0.6014 -0.5649
vt 0.750000 0.625000
vt 0.875000 0.750000
vt 0.750000 0.750000
vt 0.625000 0.875000
vt 0.500000 1.000000
vt 0.500000 0.875000
vt 0.500000 0.125000
vt 0.625000 0.250000
vt 0.500000 0.250000
vt 0.375000 0.625000
vt 0.250000 0.750000
vt 0.250000 0.625000
vt 0.500000 0.625000
vt 0.625000 0.750000
vt 0.500000 0.750000
vt 0.625000 0.375000
vt 0.500000 0.500000
vt 0.500000 0.375000
vt 0.375000 0.500000
vt 0.375000 0.375000
vt 0.375000 0.750000
vt 0.375000 0.250000
vt 0.375000 0.125000
vt 0.375000 0.875000
vt 0.375000 1.000000
vt 0.125000 0.750000
vt 0.125000 0.625000
vt 0.625000 0.625000
vt 0.625000 0.500000
vt 0.250000 0.500000
vt 0.125000 0.500000
vt 0.500000 0.000000
vt 0.375000 0.000000
vt 0.625000 0.000000
vt 0.875000 0.500000
vt 0.750000 0.500000
vt 0.875000 0.625000
vt 0.625000 1.000000
vt 0.625000 0.125000
s 0
usemtl Material
f 26/1/1 14/3/1 7/2/1
f 14/4/2 18/6/2 10/5/2
f 24/7/3 12/9/3 5/8/3
f 22/10/4 25/12/4 15/11/4
f 23/13/5 11/15/5 3/14/5
f 16/16/6 17/18/6 9/17/6
f 17/18/6 13/20/6 2/19/6
f 23/13/5 22/10/5 4/21/5
f 24/7/3 19/23/3 6/22/3
f 15/24/7 8/25/7 10/5/7
f 11/15/7 4/21/7 15/24/7
f 12/9/6 6/22/6 13/20/6
f 5/8/6 12/9/6 17/18/6
f 25/12/4 19/27/4 8/26/4
f 11/15/8 18/6/8 14/4/8
f 26/1/9 20/28/9 3/14/9
f 1/29/10 20/28/10 26/1/10
f 13/30/4 6/31/4 19/27/4
f 10/32/3 8/33/3 19/23/3
f 9/17/5 2/19/5 22/10/5
f 1/29/5 9/17/5 23/13/5
f 2/19/4 13/30/4 25/12/4
f 7/34/3 10/32/3 24/7/3
f 5/35/1 16/36/1 26/1/1
f 26/1/11 7/2/11 21/37/11
f 14/4/7 10/5/7 7/38/7
f 24/7/3 5/8/3 21/39/3
f 22/10/4 15/11/4 4/21/4
f 23/13/5 3/14/5 20/28/5
f 16/16/6 9/17/6 1/29/6
f 17/18/6 2/19/6 9/17/6
f 23/13/5 4/21/5 11/15/5
f 24/7/3 6/22/3 12/9/3
f 15/24/12 10/5/12 18/6/12
f 11/15/13 15/24/13 18/6/13
f 12/9/6 13/20/6 17/18/6
f 5/8/6 17/18/6 16/16/6
f 25/12/4 8/26/4 15/11/4
f 11/15/7 14/4/7 3/14/7
f 26/1/1 3/14/1 14/3/1
f 1/29/1 26/1/1 16/36/1
f 13/30/4 19/27/4 25/12/4
f 10/32/3 19/23/3 24/7/3
f 9/17/5 22/10/5 23/13/5
f 1/29/5 23/13/5 20/28/5
f 2/19/4 25/12/4 22/10/4
f 7/34/3 24/7/3 21/39/3
f 5/35/14 26/1/14 21/37/14
