# Blender 4.1.1
# www.blender.org
mtllib Goal.mtl
o 円柱
v 0.000000 -0.962119 1.000000
v 0.000000 -0.528041 1.000000
v -0.195090 -0.962119 0.980785
v -0.195090 -0.528041 0.980785
v -0.382683 -0.962119 0.923880
v -0.382683 -0.528041 0.923880
v -0.555570 -0.962119 0.831470
v -0.555570 -0.528041 0.831470
v -0.707107 -0.962119 0.707107
v -0.707107 -0.528041 0.707107
v -0.831470 -0.962119 0.555570
v -0.831470 -0.528041 0.555570
v -0.923880 -0.962119 0.382683
v -0.923880 -0.528041 0.382683
v -0.980785 -0.962119 0.195090
v -0.980785 -0.528041 0.195090
v -1.000000 -0.962119 0.000000
v -1.000000 -0.528041 0.000000
v -0.980785 -0.962119 -0.195090
v -0.980785 -0.528041 -0.195090
v -0.923880 -0.962119 -0.382683
v -0.923880 -0.528041 -0.382683
v -0.831470 -0.962119 -0.555570
v -0.831470 -0.528041 -0.555570
v -0.707107 -0.962119 -0.707107
v -0.707107 -0.528041 -0.707107
v -0.555570 -0.962119 -0.831470
v -0.555570 -0.528041 -0.831470
v -0.382683 -0.962119 -0.923880
v -0.382683 -0.528041 -0.923880
v -0.195090 -0.962119 -0.980785
v -0.195090 -0.528041 -0.980785
v 0.000000 -0.962119 -1.000000
v 0.000000 -0.528041 -1.000000
v 0.195090 -0.962119 -0.980785
v 0.195090 -0.528041 -0.980785
v 0.382683 -0.962119 -0.923880
v 0.382683 -0.528041 -0.923880
v 0.555570 -0.962119 -0.831470
v 0.555570 -0.528041 -0.831470
v 0.707107 -0.962119 -0.707107
v 0.707107 -0.528041 -0.707107
v 0.831470 -0.962119 -0.555570
v 0.831470 -0.528041 -0.555570
v 0.923880 -0.962119 -0.382683
v 0.923880 -0.528041 -0.382683
v 0.980785 -0.962119 -0.195090
v 0.980785 -0.528041 -0.195090
v 1.000000 -0.962119 0.000000
v 1.000000 -0.528041 0.000000
v 0.980785 -0.962119 0.195090
v 0.980785 -0.528041 0.195090
v 0.923880 -0.962119 0.382683
v 0.923880 -0.528041 0.382683
v 0.831470 -0.962119 0.555570
v 0.831470 -0.528041 0.555570
v 0.707107 -0.962119 0.707107
v 0.707107 -0.528041 0.707107
v 0.555570 -0.962119 0.831470
v 0.555570 -0.528041 0.831470
v 0.382683 -0.962119 0.923880
v 0.382683 -0.528041 0.923880
v 0.195090 -0.962119 0.980785
v 0.195090 -0.528041 0.980785
v 0.000000 -0.558658 0.200000
v 0.000000 4.487171 0.200000
v -0.039018 -0.558658 0.196157
v -0.039018 4.487171 0.196157
v -0.076537 -0.558658 0.184776
v -0.076537 4.487171 0.184776
v -0.111114 -0.558658 0.166294
v -0.111114 4.487171 0.166294
v -0.141421 -0.558658 0.141421
v -0.141421 4.487171 0.141421
v -0.166294 -0.558658 0.111114
v -0.166294 4.487171 0.111114
v -0.184776 -0.558658 0.076537
v -0.184776 4.487171 0.076537
v -0.196157 -0.558658 0.039018
v -0.196157 4.487171 0.039018
v -0.200000 -0.558658 0.000000
v -0.200000 4.487171 0.000000
v -0.196157 -0.558658 -0.039018
v -0.196157 4.487171 -0.039018
v -0.184776 -0.558658 -0.076537
v -0.184776 4.487171 -0.076537
v -0.166294 -0.558658 -0.111114
v -0.166294 4.487171 -0.111114
v -0.141421 -0.558658 -0.141421
v -0.141421 4.487171 -0.141421
v -0.111114 -0.558658 -0.166294
v -0.111114 4.487171 -0.166294
v -0.076537 -0.558658 -0.184776
v -0.076537 4.487171 -0.184776
v -0.039018 -0.558658 -0.196157
v -0.039018 4.487171 -0.196157
v 0.000000 -0.558658 -0.200000
v 0.000000 4.487171 -0.200000
v 0.039018 -0.558658 -0.196157
v 0.039018 4.487171 -0.196157
v 0.076537 -0.558658 -0.184776
v 0.076537 4.487171 -0.184776
v 0.111114 -0.558658 -0.166294
v 0.111114 4.487171 -0.166294
v 0.141421 -0.558658 -0.141421
v 0.141421 4.487171 -0.141421
v 0.166294 -0.558658 -0.111114
v 0.166294 4.487171 -0.111114
v 0.184776 -0.558658 -0.076537
v 0.184776 4.487171 -0.076537
v 0.196157 -0.558658 -0.039018
v 0.196157 4.487171 -0.039018
v 0.200000 -0.558658 0.000000
v 0.200000 4.487171 0.000000
v 0.196157 -0.558658 0.039018
v 0.196157 4.487171 0.039018
v 0.184776 -0.558658 0.076537
v 0.184776 4.487171 0.076537
v 0.166294 -0.558658 0.111114
v 0.166294 4.487171 0.111114
v 0.141421 -0.558658 0.141421
v 0.141421 4.487171 0.141421
v 0.111114 -0.558658 0.166294
v 0.111114 4.487171 0.166294
v 0.076537 -0.558658 0.184776
v 0.076537 4.487171 0.184776
v 0.039018 -0.558658 0.196157
v 0.039018 4.487171 0.196157
v -0.024239 2.403461 -0.135378
v -0.024239 4.403461 -0.135378
v -0.024239 2.403461 0.135378
v -0.024239 4.403461 0.135378
v -2.377050 3.403053 -0.135378
v -2.377050 3.403869 -0.135378
v -2.377050 3.403053 0.135378
v -2.377050 3.403869 0.135378
vn -0.0980 -0.0000 0.9952
vn -0.2903 -0.0000 0.9569
vn -0.4714 -0.0000 0.8819
vn -0.6344 -0.0000 0.7730
vn -0.7730 -0.0000 0.6344
vn -0.8819 -0.0000 0.4714
vn -0.9569 -0.0000 0.2903
vn -0.9952 -0.0000 0.0980
vn -0.9952 -0.0000 -0.0980
vn -0.9569 -0.0000 -0.2903
vn -0.8819 -0.0000 -0.4714
vn -0.7730 -0.0000 -0.6344
vn -0.6344 -0.0000 -0.7730
vn -0.4714 -0.0000 -0.8819
vn -0.2903 -0.0000 -0.9569
vn -0.0980 -0.0000 -0.9952
vn 0.0980 -0.0000 -0.9952
vn 0.2903 -0.0000 -0.9569
vn 0.4714 -0.0000 -0.8819
vn 0.6344 -0.0000 -0.7730
vn 0.7730 -0.0000 -0.6344
vn 0.8819 -0.0000 -0.4714
vn 0.9569 -0.0000 -0.2903
vn 0.9952 -0.0000 -0.0980
vn 0.9952 -0.0000 0.0980
vn 0.9569 -0.0000 0.2903
vn 0.8819 -0.0000 0.4714
vn 0.7730 -0.0000 0.6344
vn 0.6344 -0.0000 0.7730
vn 0.4714 -0.0000 0.8819
vn -0.0000 1.0000 -0.0000
vn 0.2903 -0.0000 0.9569
vn 0.0980 -0.0000 0.9952
vn -0.0000 -1.0000 -0.0000
vn 1.0000 -0.0000 -0.0000
vn -0.0000 -0.0000 1.0000
vn -1.0000 -0.0000 -0.0000
vn -0.0000 -0.0000 -1.0000
vn -0.3910 -0.9204 -0.0000
vn -0.3910 0.9204 -0.0000
vn -0.0001 1.0000 -0.0000
vn 0.0001 1.0000 -0.0000
vt 0.346994 0.564940
vt 0.357938 0.740034
vt 0.346994 0.740034
vt 0.357937 0.564940
vt 0.368881 0.740034
vt 0.368881 0.564940
vt 0.379824 0.740034
vt 0.379824 0.564940
vt 0.390768 0.740034
vt 0.390767 0.564940
vt 0.401711 0.740034
vt 0.401711 0.564940
vt 0.412654 0.740034
vt 0.412654 0.564940
vt 0.423598 0.740034
vt 0.423597 0.564940
vt 0.434541 0.740034
vt 0.434541 0.564940
vt 0.445484 0.740034
vt 0.445484 0.564940
vt 0.456428 0.740034
vt 0.456427 0.564940
vt 0.467371 0.740034
vt 0.467371 0.564940
vt 0.478314 0.740034
vt 0.478314 0.564940
vt 0.489258 0.740034
vt 0.489257 0.564940
vt 0.500201 0.740034
vt 0.500201 0.564940
vt 0.511144 0.740034
vt 0.511144 0.564940
vt 0.522087 0.740034
vt 0.522087 0.564940
vt 0.533031 0.740034
vt 0.533031 0.564940
vt 0.543974 0.740034
vt 0.543974 0.564940
vt 0.554918 0.740034
vt 0.554918 0.564940
vt 0.565861 0.740034
vt 0.565861 0.564940
vt 0.576804 0.740034
vt 0.576804 0.564940
vt 0.587747 0.740034
vt 0.587747 0.564940
vt 0.598691 0.740034
vt 0.598691 0.564940
vt 0.609634 0.740034
vt 0.609634 0.564940
vt 0.620578 0.740034
vt 0.620578 0.564940
vt 0.631521 0.740034
vt 0.631521 0.564940
vt 0.642464 0.740034
vt 0.642464 0.564940
vt 0.653407 0.740034
vt 0.653407 0.564940
vt 0.664351 0.740034
vt 0.664351 0.564940
vt 0.675294 0.740034
vt 0.884781 0.697625
vt 0.984818 0.884781
vt 0.797662 0.984818
vt 0.675294 0.564940
vt 0.686238 0.740034
vt 0.686238 0.564940
vt 0.697181 0.740034
vt 0.274871 0.905102
vt 0.254070 0.693910
vt 0.042878 0.714710
vt 0.771349 0.009955
vt 0.504376 0.026640
vt 0.504376 0.009955
vt 0.771349 0.026640
vt 0.504376 0.043326
vt 0.771349 0.043326
vt 0.504376 0.060012
vt 0.771349 0.060012
vt 0.504376 0.076698
vt 0.771349 0.076698
vt 0.504376 0.093384
vt 0.771349 0.093384
vt 0.504376 0.110069
vt 0.771349 0.110069
vt 0.504376 0.126755
vt 0.771349 0.126755
vt 0.504376 0.143441
vt 0.771349 0.143441
vt 0.504376 0.160127
vt 0.771349 0.160127
vt 0.504376 0.176813
vt 0.771349 0.176813
vt 0.504376 0.193498
vt 0.771349 0.193498
vt 0.504376 0.210184
vt 0.771349 0.210184
vt 0.504376 0.226870
vt 0.771349 0.226870
vt 0.504376 0.243556
vt 0.771349 0.243556
vt 0.504376 0.260242
vt 0.771349 0.260242
vt 0.504376 0.276927
vt 0.771349 0.276927
vt 0.504376 0.293613
vt 0.771349 0.293613
vt 0.504376 0.310299
vt 0.771349 0.310299
vt 0.504376 0.326985
vt 0.771349 0.326985
vt 0.504376 0.343670
vt 0.771349 0.343670
vt 0.504376 0.360356
vt 0.771349 0.360356
vt 0.504376 0.377042
vt 0.771349 0.377042
vt 0.504376 0.393728
vt 0.771349 0.393728
vt 0.504376 0.410414
vt 0.771349 0.410414
vt 0.504376 0.427099
vt 0.771349 0.427099
vt 0.504376 0.443785
vt 0.771349 0.443785
vt 0.504376 0.460471
vt 0.771349 0.460471
vt 0.504376 0.477157
vt 0.771349 0.477157
vt 0.504376 0.493843
vt 0.771349 0.493843
vt 0.504376 0.510528
vt 0.121890 0.117730
vt 0.079652 0.121890
vt 0.075492 0.079652
vt 0.771349 0.510528
vt 0.504376 0.527214
vt 0.771349 0.527214
vt 0.504376 0.543900
vt 0.010637 0.030645
vt 0.030645 0.068076
vt 0.068076 0.048068
vt 0.325135 0.010015
vt 0.167353 0.167797
vt 0.167353 0.010015
vt 0.325135 0.167797
vt 0.167353 0.325579
vt 0.325135 0.325579
vt 0.167353 0.483361
vt 0.325135 0.483361
vt 0.167353 0.641143
vt 0.009571 0.483361
vt 0.009571 0.325579
vt 0.482917 0.325579
vt 0.770485 0.973561
vt 0.746026 0.957218
vt 0.725225 0.936418
vt 0.708882 0.911959
vt 0.697625 0.884781
vt 0.691886 0.855930
vt 0.691886 0.826513
vt 0.697625 0.797662
vt 0.708882 0.770485
vt 0.725225 0.746026
vt 0.746026 0.725225
vt 0.770485 0.708882
vt 0.797662 0.697625
vt 0.826513 0.691886
vt 0.855930 0.691886
vt 0.911959 0.708882
vt 0.936417 0.725225
vt 0.957218 0.746026
vt 0.973561 0.770485
vt 0.984818 0.797662
vt 0.990557 0.826513
vt 0.990557 0.855930
vt 0.973561 0.911959
vt 0.957218 0.936418
vt 0.936417 0.957218
vt 0.911959 0.973561
vt 0.884781 0.984818
vt 0.855930 0.990557
vt 0.826513 0.990557
vt 0.697181 0.564940
vt 0.026535 0.739169
vt 0.015278 0.766347
vt 0.009539 0.795198
vt 0.009539 0.824614
vt 0.015278 0.853466
vt 0.026535 0.880643
vt 0.042878 0.905102
vt 0.063679 0.925903
vt 0.088138 0.942246
vt 0.115315 0.953503
vt 0.144166 0.959242
vt 0.173583 0.959242
vt 0.202434 0.953503
vt 0.229611 0.942246
vt 0.254070 0.925903
vt 0.291214 0.880643
vt 0.302471 0.853466
vt 0.308210 0.824614
vt 0.308210 0.795198
vt 0.302471 0.766347
vt 0.291214 0.739169
vt 0.274871 0.714710
vt 0.229611 0.677567
vt 0.202434 0.666309
vt 0.173583 0.660571
vt 0.144166 0.660571
vt 0.115315 0.666309
vt 0.088137 0.677567
vt 0.063679 0.693910
vt 0.079652 0.075492
vt 0.084544 0.072223
vt 0.089979 0.069972
vt 0.095749 0.068824
vt 0.101633 0.068824
vt 0.107403 0.069972
vt 0.112838 0.072223
vt 0.117730 0.075492
vt 0.121890 0.079652
vt 0.125159 0.084544
vt 0.127410 0.089979
vt 0.128558 0.095749
vt 0.128558 0.101633
vt 0.127410 0.107403
vt 0.125159 0.112838
vt 0.117730 0.121890
vt 0.112838 0.125159
vt 0.107403 0.127410
vt 0.101633 0.128558
vt 0.095749 0.128558
vt 0.089979 0.127410
vt 0.084544 0.125159
vt 0.075492 0.117730
vt 0.072223 0.112838
vt 0.069972 0.107403
vt 0.068824 0.101633
vt 0.068824 0.095749
vt 0.069972 0.089979
vt 0.072223 0.084544
vt 0.771349 0.543900
vt 0.069224 0.042298
vt 0.069224 0.036415
vt 0.068076 0.030645
vt 0.065824 0.025209
vt 0.062556 0.020317
vt 0.058396 0.016157
vt 0.053504 0.012889
vt 0.048068 0.010637
vt 0.042298 0.009489
vt 0.036415 0.009489
vt 0.030645 0.010637
vt 0.025209 0.012889
vt 0.020317 0.016157
vt 0.016157 0.020317
vt 0.012889 0.025209
vt 0.009489 0.036415
vt 0.009489 0.042298
vt 0.010637 0.048068
vt 0.012889 0.053504
vt 0.016157 0.058396
vt 0.020317 0.062556
vt 0.025209 0.065824
vt 0.036415 0.069224
vt 0.042298 0.069224
vt 0.048068 0.068076
vt 0.053504 0.065824
vt 0.058396 0.062556
vt 0.062556 0.058396
vt 0.065824 0.053504
vt 0.325135 0.641143
vt 0.482917 0.483361
s 0
usemtl マテリアル
f 2/1/1 3/2/1 1/3/1
f 4/4/2 5/5/2 3/2/2
f 6/6/3 7/7/3 5/5/3
f 8/8/4 9/9/4 7/7/4
f 10/10/5 11/11/5 9/9/5
f 12/12/6 13/13/6 11/11/6
f 14/14/7 15/15/7 13/13/7
f 16/16/8 17/17/8 15/15/8
f 18/18/9 19/19/9 17/17/9
f 20/20/10 21/21/10 19/19/10
f 22/22/11 23/23/11 21/21/11
f 24/24/12 25/25/12 23/23/12
f 26/26/13 27/27/13 25/25/13
f 28/28/14 29/29/14 27/27/14
f 30/30/15 31/31/15 29/29/15
f 32/32/16 33/33/16 31/31/16
f 34/34/17 35/35/17 33/33/17
f 36/36/18 37/37/18 35/35/18
f 38/38/19 39/39/19 37/37/19
f 40/40/20 41/41/20 39/39/20
f 42/42/21 43/43/21 41/41/21
f 44/44/22 45/45/22 43/43/22
f 46/46/23 47/47/23 45/45/23
f 48/48/24 49/49/24 47/47/24
f 50/50/25 51/51/25 49/49/25
f 52/52/26 53/53/26 51/51/26
f 54/54/27 55/55/27 53/53/27
f 56/56/28 57/57/28 55/55/28
f 58/58/29 59/59/29 57/57/29
f 60/60/30 61/61/30 59/59/30
f 38/62/31 22/63/31 6/64/31
f 62/65/32 63/66/32 61/61/32
f 64/67/33 1/68/33 63/66/33
f 31/69/34 47/70/34 63/71/34
f 66/72/1 67/73/1 65/74/1
f 68/75/2 69/76/2 67/73/2
f 70/77/3 71/78/3 69/76/3
f 72/79/4 73/80/4 71/78/4
f 74/81/5 75/82/5 73/80/5
f 76/83/6 77/84/6 75/82/6
f 78/85/7 79/86/7 77/84/7
f 80/87/8 81/88/8 79/86/8
f 82/89/9 83/90/9 81/88/9
f 84/91/10 85/92/10 83/90/10
f 86/93/11 87/94/11 85/92/11
f 88/95/12 89/96/12 87/94/12
f 90/97/13 91/98/13 89/96/13
f 92/99/14 93/100/14 91/98/14
f 94/101/15 95/102/15 93/100/15
f 96/103/16 97/104/16 95/102/16
f 98/105/17 99/106/17 97/104/17
f 100/107/18 101/108/18 99/106/18
f 102/109/19 103/110/19 101/108/19
f 104/111/20 105/112/20 103/110/20
f 106/113/21 107/114/21 105/112/21
f 108/115/22 109/116/22 107/114/22
f 110/117/23 111/118/23 109/116/23
f 112/119/24 113/120/24 111/118/24
f 114/121/25 115/122/25 113/120/25
f 116/123/26 117/124/26 115/122/26
f 118/125/27 119/126/27 117/124/27
f 120/127/28 121/128/28 119/126/28
f 122/129/29 123/130/29 121/128/29
f 124/131/30 125/132/30 123/130/30
f 102/133/31 86/134/31 70/135/31
f 126/136/32 127/137/32 125/132/32
f 128/138/33 65/139/33 127/137/33
f 95/140/34 111/141/34 127/142/34
f 130/143/35 131/144/35 129/145/35
f 132/146/36 135/147/36 131/144/36
f 136/148/37 133/149/37 135/147/37
f 134/150/38 129/151/38 133/149/38
f 135/147/39 129/152/39 131/153/39
f 132/154/40 134/150/40 136/148/40
f 2/1/1 4/4/1 3/2/1
f 4/4/2 6/6/2 5/5/2
f 6/6/3 8/8/3 7/7/3
f 8/8/4 10/10/4 9/9/4
f 10/10/5 12/12/5 11/11/5
f 12/12/6 14/14/6 13/13/6
f 14/14/7 16/16/7 15/15/7
f 16/16/8 18/18/8 17/17/8
f 18/18/9 20/20/9 19/19/9
f 20/20/10 22/22/10 21/21/10
f 22/22/11 24/24/11 23/23/11
f 24/24/12 26/26/12 25/25/12
f 26/26/13 28/28/13 27/27/13
f 28/28/14 30/30/14 29/29/14
f 30/30/15 32/32/15 31/31/15
f 32/32/16 34/34/16 33/33/16
f 34/34/17 36/36/17 35/35/17
f 36/36/18 38/38/18 37/37/18
f 38/38/19 40/40/19 39/39/19
f 40/40/20 42/42/20 41/41/20
f 42/42/21 44/44/21 43/43/21
f 44/44/22 46/46/22 45/45/22
f 46/46/23 48/48/23 47/47/23
f 48/48/24 50/50/24 49/49/24
f 50/50/25 52/52/25 51/51/25
f 52/52/26 54/54/26 53/53/26
f 54/54/27 56/56/27 55/55/27
f 56/56/28 58/58/28 57/57/28
f 58/58/29 60/60/29 59/59/29
f 60/60/30 62/65/30 61/61/30
f 6/64/31 4/155/31 2/156/31
f 2/156/31 64/157/31 62/158/31
f 62/158/31 60/159/31 58/160/31
f 58/160/31 56/161/31 54/162/31
f 54/162/31 52/163/31 50/164/31
f 50/164/31 48/165/31 46/166/31
f 46/166/31 44/167/31 42/168/31
f 42/168/31 40/169/31 38/62/31
f 38/62/31 36/170/31 34/171/31
f 34/171/31 32/172/31 30/173/31
f 30/173/31 28/174/31 26/175/31
f 26/175/31 24/176/31 22/63/31
f 22/63/31 20/177/31 18/178/31
f 18/178/31 16/179/31 14/180/31
f 14/180/31 12/181/31 10/182/31
f 10/182/31 8/183/31 6/64/31
f 6/64/31 2/156/31 62/158/31
f 62/158/31 58/160/31 54/162/31
f 54/162/31 50/164/31 46/166/31
f 46/166/31 42/168/31 38/62/31
f 38/62/31 34/171/31 30/173/31
f 30/173/31 26/175/31 22/63/31
f 22/63/31 18/178/31 14/180/31
f 14/180/31 10/182/31 6/64/31
f 6/64/31 62/158/31 54/162/31
f 54/162/31 46/166/31 38/62/31
f 38/62/31 30/173/31 22/63/31
f 22/63/31 14/180/31 6/64/31
f 6/64/31 54/162/31 38/62/31
f 62/65/32 64/67/32 63/66/32
f 64/67/33 2/184/33 1/68/33
f 63/71/34 1/185/34 3/186/34
f 3/186/34 5/187/34 7/188/34
f 7/188/34 9/189/34 11/190/34
f 11/190/34 13/191/34 15/192/34
f 15/192/34 17/193/34 19/194/34
f 19/194/34 21/195/34 23/196/34
f 23/196/34 25/197/34 27/198/34
f 27/198/34 29/199/34 31/69/34
f 31/69/34 33/200/34 35/201/34
f 35/201/34 37/202/34 39/203/34
f 39/203/34 41/204/34 43/205/34
f 43/205/34 45/206/34 47/70/34
f 47/70/34 49/207/34 51/208/34
f 51/208/34 53/209/34 55/210/34
f 55/210/34 57/211/34 59/212/34
f 59/212/34 61/213/34 63/71/34
f 63/71/34 3/186/34 7/188/34
f 7/188/34 11/190/34 15/192/34
f 15/192/34 19/194/34 23/196/34
f 23/196/34 27/198/34 31/69/34
f 31/69/34 35/201/34 39/203/34
f 39/203/34 43/205/34 47/70/34
f 47/70/34 51/208/34 55/210/34
f 55/210/34 59/212/34 63/71/34
f 63/71/34 7/188/34 15/192/34
f 15/192/34 23/196/34 31/69/34
f 31/69/34 39/203/34 47/70/34
f 47/70/34 55/210/34 63/71/34
f 63/71/34 15/192/34 31/69/34
f 66/72/1 68/75/1 67/73/1
f 68/75/2 70/77/2 69/76/2
f 70/77/3 72/79/3 71/78/3
f 72/79/4 74/81/4 73/80/4
f 74/81/5 76/83/5 75/82/5
f 76/83/6 78/85/6 77/84/6
f 78/85/7 80/87/7 79/86/7
f 80/87/8 82/89/8 81/88/8
f 82/89/9 84/91/9 83/90/9
f 84/91/10 86/93/10 85/92/10
f 86/93/11 88/95/11 87/94/11
f 88/95/12 90/97/12 89/96/12
f 90/97/13 92/99/13 91/98/13
f 92/99/14 94/101/14 93/100/14
f 94/101/15 96/103/15 95/102/15
f 96/103/16 98/105/16 97/104/16
f 98/105/17 100/107/17 99/106/17
f 100/107/18 102/109/18 101/108/18
f 102/109/19 104/111/19 103/110/19
f 104/111/20 106/113/20 105/112/20
f 106/113/21 108/115/21 107/114/21
f 108/115/22 110/117/22 109/116/22
f 110/117/23 112/119/23 111/118/23
f 112/119/24 114/121/24 113/120/24
f 114/121/25 116/123/25 115/122/25
f 116/123/26 118/125/26 117/124/26
f 118/125/27 120/127/27 119/126/27
f 120/127/28 122/129/28 121/128/28
f 122/129/29 124/131/29 123/130/29
f 124/131/30 126/136/30 125/132/30
f 70/135/31 68/214/31 66/215/31
f 66/215/31 128/216/31 126/217/31
f 126/217/31 124/218/31 122/219/31
f 122/219/41 120/220/41 118/221/41
f 118/221/41 116/222/41 114/223/41
f 114/223/41 112/224/41 110/225/41
f 110/225/41 108/226/41 106/227/41
f 106/227/31 104/228/31 102/133/31
f 102/133/31 100/229/31 98/230/31
f 98/230/31 96/231/31 94/232/31
f 94/232/31 92/233/31 90/234/31
f 90/234/42 88/235/42 86/134/42
f 86/134/42 84/236/42 82/237/42
f 82/237/42 80/238/42 78/239/42
f 78/239/42 76/240/42 74/241/42
f 74/241/31 72/242/31 70/135/31
f 70/135/31 66/215/31 126/217/31
f 126/217/31 122/219/31 118/221/31
f 118/221/31 114/223/31 110/225/31
f 110/225/31 106/227/31 102/133/31
f 102/133/31 98/230/31 94/232/31
f 94/232/31 90/234/31 86/134/31
f 86/134/31 82/237/31 78/239/31
f 78/239/31 74/241/31 70/135/31
f 70/135/31 126/217/31 118/221/31
f 118/221/31 110/225/31 102/133/31
f 102/133/31 94/232/31 86/134/31
f 86/134/31 78/239/31 70/135/31
f 70/135/31 118/221/31 102/133/31
f 126/136/32 128/138/32 127/137/32
f 128/138/33 66/243/33 65/139/33
f 127/142/34 65/244/34 67/245/34
f 67/245/34 69/246/34 71/247/34
f 71/247/34 73/248/34 75/249/34
f 75/249/34 77/250/34 79/251/34
f 79/251/34 81/252/34 83/253/34
f 83/253/34 85/254/34 87/255/34
f 87/255/34 89/256/34 91/257/34
f 91/257/34 93/258/34 95/140/34
f 95/140/34 97/259/34 99/260/34
f 99/260/34 101/261/34 103/262/34
f 103/262/34 105/263/34 107/264/34
f 107/264/34 109/265/34 111/141/34
f 111/141/34 113/266/34 115/267/34
f 115/267/34 117/268/34 119/269/34
f 119/269/34 121/270/34 123/271/34
f 123/271/34 125/272/34 127/142/34
f 127/142/34 67/245/34 71/247/34
f 71/247/34 75/249/34 79/251/34
f 79/251/34 83/253/34 87/255/34
f 87/255/34 91/257/34 95/140/34
f 95/140/34 99/260/34 103/262/34
f 103/262/34 107/264/34 111/141/34
f 111/141/34 115/267/34 119/269/34
f 119/269/34 123/271/34 127/142/34
f 127/142/34 71/247/34 79/251/34
f 79/251/34 87/255/34 95/140/34
f 95/140/34 103/262/34 111/141/34
f 111/141/34 119/269/34 127/142/34
f 127/142/34 79/251/34 95/140/34
f 130/143/35 132/146/35 131/144/35
f 132/146/36 136/148/36 135/147/36
f 136/148/37 134/150/37 133/149/37
f 134/150/38 130/273/38 129/151/38
f 135/147/39 133/149/39 129/152/39
f 132/154/40 130/274/40 134/150/40
